<svg width="20" height="20" viewBox="0 0 20 20" fill="none" xmlns="http://www.w3.org/2000/svg">
<path d="M1.31738 15.3789H1.33301L18.666 15.5732H18.6826V13.0439H1.31738V15.3789ZM9.31738 11.2148H18.6826V8.83691C18.682 8.09438 18.4698 7.38161 18.0928 6.85547C17.7157 6.32944 17.2032 6.03222 16.667 6.03125H9.31738V11.2148ZM1.31738 11.2139H5.75879V8.81445C5.758 7.95468 5.51359 7.12961 5.07715 6.52051C4.64048 5.91121 4.04631 5.56641 3.42578 5.56543H1.31738V11.2139ZM18.6826 17.4023H18.667L1.33398 17.209L1.31738 17.208V19.9844H0.015625V0.015625H1.31738V3.73633H3.42578C4.38756 3.73784 5.31196 4.27173 5.99414 5.22363C6.67633 6.1756 7.06046 7.46766 7.06152 8.81543V11.2148H8.01562V4.20215H16.667C17.5444 4.20365 18.3872 4.69004 19.0098 5.55859C19.6324 6.42745 19.9833 7.60664 19.9844 8.83691V19.9844H18.6826V17.4023Z" fill="#878787" stroke="#878787" stroke-width="0.03125"/>
</svg>
