<svg width="16" height="10" viewBox="0 0 16 10" fill="none" xmlns="http://www.w3.org/2000/svg">
<path d="M0.888889 10H15.1111C15.6 10 16 9.625 16 9.16667C16 8.70833 15.6 8.33333 15.1111 8.33333H0.888889C0.4 8.33333 0 8.70833 0 9.16667C0 9.625 0.4 10 0.888889 10ZM0.888889 5.83333H15.1111C15.6 5.83333 16 5.45833 16 5C16 4.54167 15.6 4.16667 15.1111 4.16667H0.888889C0.4 4.16667 0 4.54167 0 5C0 5.45833 0.4 5.83333 0.888889 5.83333ZM0 0.833333C0 1.29167 0.4 1.66667 0.888889 1.66667H15.1111C15.6 1.66667 16 1.29167 16 0.833333C16 0.375 15.6 0 15.1111 0H0.888889C0.4 0 0 0.375 0 0.833333Z" fill="#1E1E1E"/>
</svg>
