<svg width="28" height="28" viewBox="0 0 28 28" fill="none" xmlns="http://www.w3.org/2000/svg">
<path d="M17.0502 0.339708C13.6769 0.87595 13.9991 0.843119 13.5454 0.684435C12.2105 0.202911 10.5797 0.284988 9.36324 0.897839C9.15282 1.00727 8.79773 1.23709 8.57416 1.41219L8.16646 1.72956L5.47043 2.14542C3.9909 2.38071 2.62973 2.616 2.44561 2.67072C1.38692 2.99903 0.492629 3.80887 0.144117 4.73909C-0.0202754 5.1659 -0.0465782 5.82252 0.07836 6.28216C0.301934 7.10841 0.650446 7.53521 1.83407 8.41619C2.28122 8.74997 2.66918 9.03998 2.69549 9.06186C2.72179 9.08375 3.29387 11.568 3.9646 14.5775L5.1811 20.0603V23.7484V27.4364L5.33234 27.617C5.74003 28.1204 6.52254 28.1094 6.98284 27.5951C7.12093 27.4473 7.12093 27.3817 7.14066 24.0821L7.16038 20.7224H9.32379H11.4938V24.0493C11.4938 27.1792 11.5003 27.3817 11.6187 27.5623C11.7568 27.7811 12.1645 28 12.4407 28C12.7892 28 13.1837 27.7975 13.3284 27.5404C13.4665 27.316 13.4665 27.2285 13.4665 24.0165V20.7224H14.4528H15.4392V23.2832C15.4392 25.4228 15.4589 25.8988 15.5444 26.1669C15.9389 27.4473 17.5566 28.2462 19.0755 27.9179C19.6345 27.7975 20.0882 27.5841 20.463 27.2668C21.1206 26.7196 21.3507 26.1341 21.3573 25.0452L21.3639 24.4159L21.8439 25.4556C22.4489 26.7579 22.5409 26.9111 22.9618 27.2668C24.1323 28.2408 25.9406 28.2408 27.1176 27.2668C27.8672 26.6375 28.1697 25.7675 27.9067 24.9631C27.8015 24.6293 24.8885 18.2382 24.6649 17.8387C24.2901 17.1657 23.5667 16.5529 22.7382 16.2081C22.0741 15.9291 21.6072 15.836 20.6997 15.8032L19.8778 15.7704L19.3912 13.6363L18.9111 11.4968L21.1469 7.80881C23.1722 4.4655 23.3892 4.07699 23.4615 3.70491C23.7706 2.14542 22.6659 0.607828 20.9036 0.142719C20.0487 -0.0816269 19.5556 -0.0597382 17.0502 0.339708ZM20.3052 1.71315C20.805 1.839 21.3113 2.26033 21.4625 2.69261C21.6598 3.26716 21.6138 3.38754 20.4696 5.29722C19.8975 6.24385 19.1808 7.42031 18.8717 7.91277L18.3128 8.81016L18.1878 8.38882C18.0234 7.79786 17.6683 7.26162 17.1752 6.85123L16.7675 6.51197L17.813 5.70214C18.3917 5.25344 18.9111 4.81569 18.9703 4.72815C19.0361 4.61324 19.0624 4.4655 19.0427 4.26304C19.0164 4.00039 18.9769 3.93472 18.7731 3.78151C18.6481 3.68302 18.4311 3.58452 18.2996 3.56264C17.8722 3.49697 17.6157 3.61189 16.9056 4.17002C16.5373 4.45455 16.2283 4.68984 16.2151 4.68984C16.202 4.68984 16.202 4.50927 16.2151 4.28492C16.248 3.74868 16.1362 3.22338 15.8732 2.68167L15.6562 2.23845L16.7477 2.06334C17.3461 1.97032 18.1944 1.839 18.6284 1.76786C19.595 1.60918 19.8515 1.60371 20.3052 1.71315ZM12.5196 2.11259C14.3673 2.65431 14.8474 4.5804 13.4007 5.69119C12.8812 6.09064 12.4341 6.23838 11.691 6.24385C11.1913 6.24932 11.0861 6.22744 10.6915 6.07422C9.58682 5.64195 8.97528 4.72267 9.17912 3.81434C9.36982 2.94432 10.0011 2.34788 11.0006 2.08523C11.4017 1.98127 12.0987 1.99221 12.5196 2.11259ZM7.17354 3.89095C7.12093 4.367 7.25902 5.0291 7.51547 5.55987C7.63383 5.8061 7.71932 6.00309 7.70617 6.00309C7.69302 6.00309 7.31163 5.87724 6.8579 5.7295C6.40418 5.57628 5.9373 5.4559 5.81894 5.4559C5.31919 5.4559 4.85231 5.83346 4.85231 6.23291C4.85231 6.49009 5.01013 6.79651 5.20083 6.90595C5.27316 6.94972 5.94388 7.18501 6.68693 7.43125C7.42999 7.67748 8.0481 7.88541 8.05468 7.88541C8.06125 7.89088 7.98235 8.03863 7.88371 8.2192C7.5352 8.83205 7.42999 9.47773 7.5615 10.1179C7.62068 10.3861 7.62726 10.5229 7.5878 10.501C7.54835 10.4846 6.345 9.58716 4.9115 8.51468C1.95901 6.30404 1.99189 6.33687 1.99189 5.62006C1.99189 5.26986 2.01819 5.1659 2.18916 4.91419C2.41273 4.5804 2.72837 4.34512 3.10976 4.22473C3.30045 4.16454 6.59487 3.61189 7.16696 3.54622C7.19326 3.54075 7.19984 3.69943 7.17354 3.89095ZM15.2551 7.71031C15.6365 7.84711 16.0376 8.19731 16.1822 8.52562C16.2414 8.65695 16.636 10.293 17.0502 12.1589C17.4711 14.0248 17.8327 15.6062 17.8525 15.6719L17.8853 15.7977H14.3673H10.8493L10.8099 15.65C10.4219 14.096 9.50133 9.77868 9.50133 9.53245C9.50133 9.35187 9.54736 9.11658 9.60654 9.00715C9.74463 8.73355 10.1457 8.37241 10.468 8.23561C10.8428 8.07693 14.2621 7.53521 14.6501 7.57352C14.8145 7.58446 15.0841 7.65012 15.2551 7.71031ZM7.32478 12.531L8.25852 13.226L8.4558 14.1179C8.56758 14.6049 8.7517 15.4475 8.86349 15.9893C8.97528 16.531 9.10679 17.1602 9.1594 17.3846C9.26461 17.888 9.44873 18.3039 9.75121 18.7197C9.87615 18.8948 9.98136 19.048 9.98136 19.059C9.98136 19.0699 9.30406 19.0809 8.46895 19.0809C7.64041 19.0809 6.95654 19.0644 6.95654 19.048C6.95654 19.0316 6.55542 17.2204 6.06882 15.0262C5.58222 12.832 5.1811 11.0044 5.1811 10.9715C5.1811 10.9387 5.45728 11.1193 5.79264 11.3765C6.12142 11.6282 6.81845 12.148 7.32478 12.531ZM21.7255 17.6199C22.1727 17.795 22.6593 18.1725 22.8631 18.5063C23.1262 18.9495 26.0261 25.3954 26.0261 25.5541C26.0261 26.145 25.2172 26.539 24.5991 26.249C24.4545 26.1833 24.2901 26.063 24.2375 25.9864C24.1783 25.9043 23.4747 24.4105 22.679 22.6649C21.811 20.7771 21.1666 19.442 21.0746 19.3654C20.7523 19.0754 20.8313 19.0809 17.1357 19.0809C13.3613 19.0809 13.1706 19.0644 12.513 18.7525C11.9738 18.4954 11.2307 17.7676 11.2307 17.494C11.2307 17.4557 12.7431 17.4393 16.2809 17.4502L21.3244 17.4667L21.7255 17.6199ZM19.3714 23.2614C19.3517 25.7292 19.3451 25.8058 19.2136 25.9535C18.9703 26.2326 18.7468 26.3311 18.3785 26.3311C18.1286 26.3311 17.9774 26.2982 17.8327 26.2107C17.4119 25.959 17.4119 25.9754 17.4119 23.2176V20.7224H18.3982H19.3912L19.3714 23.2614Z" fill="black"/>
</svg>
