<svg width="28" height="28" viewBox="0 0 28 28" fill="none" xmlns="http://www.w3.org/2000/svg">
<path d="M7.07775 0.0689462C6.46515 0.18831 5.57126 0.567464 5.05867 0.925555C4.08976 1.59259 3.19587 2.73707 2.78955 3.83241C2.42699 4.80136 2.34573 5.28583 2.35198 6.41627C2.35823 7.35012 2.37699 7.5397 2.52701 8.09438C2.83956 9.26696 3.35214 10.2078 4.08976 11.0012L4.50233 11.4436L4.3023 11.5629C1.96442 12.9813 0.389161 15.5441 0.0703592 18.4579C-0.0359082 19.3707 -0.0171551 21.5754 0.0953632 22.0599C0.376659 23.2746 1.20804 24.2155 2.28322 24.5314C2.57077 24.6157 3.02084 24.6368 4.29605 24.6368H5.94007L5.96507 24.7912C5.98382 24.8825 6.01508 25.1002 6.03383 25.2757C6.08384 25.7251 6.4339 26.5044 6.7652 26.9187C7.12776 27.3611 7.6591 27.7262 8.18418 27.8806C8.55924 27.986 9.09683 28 14.0039 28C18.9109 28 19.4485 27.986 19.8236 27.8806C20.3487 27.7262 20.88 27.3611 21.2426 26.9187C21.5739 26.5044 21.9239 25.7251 21.9739 25.2757C21.9927 25.1002 22.0239 24.8825 22.0427 24.7912L22.0677 24.6368H23.7117C25.4933 24.6368 25.7745 24.5946 26.3934 24.2436C27.131 23.8223 27.7686 22.8674 27.9437 21.9195C28.0562 21.3367 27.9874 18.4509 27.8499 17.7769C27.3311 15.1579 25.9683 13.0445 23.9492 11.7174L23.5179 11.4366L23.9242 11.0012C24.6556 10.2078 25.1682 9.25993 25.4807 8.09438C25.637 7.53267 25.6558 7.36416 25.6558 6.38117C25.6558 5.39817 25.637 5.22966 25.4807 4.66795C25.1619 3.47432 24.6494 2.53345 23.893 1.73301C22.2552 -0.00126764 19.8861 -0.478722 17.767 0.504272C16.8356 0.932576 15.8104 1.90855 15.2353 2.90558L14.954 3.39708L14.0039 3.39006L13.0537 3.38304L12.7412 2.86346C11.9598 1.54344 10.8096 0.616614 9.40938 0.18831C8.90305 0.0268179 7.59659 -0.0363745 7.07775 0.0689462ZM9.19685 2.46324C9.94697 2.77218 10.5908 3.29878 10.9721 3.93071L11.1597 4.2256L11.0034 4.33795C10.1095 4.99796 9.40313 5.89669 8.94055 6.96394C8.52174 7.94694 8.43422 8.34715 8.39672 9.51973L8.35921 10.5238H7.97165C6.34638 10.5238 4.85239 9.19674 4.43982 7.39927C3.93974 5.2086 5.10868 2.9758 7.0715 2.37898C7.70285 2.18238 8.60925 2.22451 9.19685 2.46324ZM20.9113 2.37898C22.8803 2.94771 24.068 5.19455 23.5679 7.39927C23.2366 8.86674 22.2177 10.0112 20.9113 10.3834C20.6425 10.4606 20.2674 10.5238 20.0736 10.5238H19.7236L19.7111 9.73037C19.7048 8.83163 19.5985 8.19971 19.3235 7.39927C18.9484 6.31095 18.1233 5.13838 17.2669 4.49242C16.8231 4.15539 16.8231 4.16943 17.2857 3.58666C18.1796 2.47026 19.586 1.99983 20.9113 2.37898ZM15.1916 5.81946C16.3043 6.24776 17.2169 7.28693 17.5732 8.5578C17.7607 9.19674 17.7607 10.3061 17.5795 10.9451C17.0794 12.6934 15.6416 13.894 14.0351 13.894C13.0412 13.894 12.1786 13.4728 11.4347 12.6372C10.6846 11.7947 10.3783 10.9521 10.3783 9.75143C10.3783 8.54375 10.6846 7.70821 11.4347 6.87266C11.9598 6.28989 12.5536 5.88967 13.1662 5.71414C13.6976 5.56669 14.6665 5.61584 15.1916 5.81946ZM8.76553 12.8268C9.04057 12.8759 9.07183 12.904 9.32187 13.3323C9.47189 13.5781 9.79694 14.0134 10.047 14.2872L10.5033 14.7928L10.0907 15.0526C8.75927 15.8671 7.50907 17.3345 6.81521 18.8722C6.42139 19.7499 6.00258 21.442 6.00258 22.1512V22.3969L4.32105 22.3759C2.73329 22.3548 2.62703 22.3478 2.4645 22.2074C2.05193 21.8633 2.03318 21.7931 2.01443 20.438C1.98942 19.0548 2.05818 18.3596 2.29572 17.5101C2.90207 15.3615 4.39606 13.7115 6.34638 13.0585C7.0965 12.8057 8.04041 12.7145 8.76553 12.8268ZM20.7987 12.8479C23.0679 13.1989 25.0307 15.0596 25.712 17.5101C25.9496 18.3596 26.0183 19.0618 25.9933 20.438C25.9746 21.7931 25.9558 21.8633 25.5433 22.2074C25.3807 22.3478 25.2745 22.3548 23.6867 22.3759L22.0052 22.3969V22.1442C22.0052 21.4561 21.5739 19.7358 21.1926 18.8722C20.5112 17.3626 19.2422 15.86 17.9733 15.0807C17.767 14.9543 17.592 14.849 17.5795 14.8349C17.567 14.8279 17.767 14.5892 18.017 14.3083C18.2671 14.0204 18.5984 13.5851 18.7484 13.3323C18.9797 12.9391 19.0485 12.8689 19.2422 12.8338C19.6298 12.7636 20.2862 12.7636 20.7987 12.8479ZM15.4291 16.3445C17.4544 16.9062 19.111 18.6335 19.7423 20.8452C19.9799 21.6878 20.0299 22.1161 20.0299 23.5484C20.0361 24.9106 20.0299 24.9597 19.8861 25.2266C19.7923 25.3951 19.636 25.5425 19.4798 25.6268C19.236 25.7532 18.9547 25.7602 13.9789 25.7602H8.74052L8.49048 25.6057C8.35921 25.5215 8.18418 25.3389 8.10917 25.1985C7.9779 24.9668 7.97165 24.8755 7.9779 23.5484C7.9779 22.1091 8.02165 21.7018 8.26544 20.8452C8.84054 18.8231 10.2845 17.1871 12.1223 16.492C13.1225 16.1198 14.3914 16.0637 15.4291 16.3445Z" fill="black"/>
</svg>
