<svg width="28" height="28" viewBox="0 0 28 28" fill="none" xmlns="http://www.w3.org/2000/svg">
<g clip-path="url(#clip0_81_237)">
<path d="M12.7969 0.0601486C9.6414 0.333586 6.66094 1.68437 4.34219 3.89921C2.0125 6.12499 0.579686 8.9414 0.12578 12.1898C0.00546722 13.0484 0.00546722 14.9516 0.12578 15.8101C0.705467 19.9609 2.90937 23.4391 6.42031 25.7523C7.09297 26.1953 8.40547 26.8516 9.2039 27.1469C10.9484 27.7922 13.0539 28.0875 14.8914 27.9562C16.882 27.8086 18.3914 27.4094 20.1578 26.5453C21.4703 25.9055 22.575 25.1398 23.6578 24.1008C25.982 21.8805 27.4203 19.0586 27.8742 15.832C27.9945 14.9351 27.9945 13.0648 27.8742 12.168C27.2945 8.03905 25.0852 4.55546 21.5797 2.24765C20.907 1.80468 19.5945 1.14843 18.7961 0.853117C16.9641 0.180461 14.782 -0.109383 12.7969 0.0601486ZM14.4266 2.18749C15.3672 2.86562 16.3187 5.18437 16.8328 8.04999L16.9367 8.64062H14H11.0633L11.1672 8.04999C11.7687 4.68671 13.0211 2.02343 14 2.02343C14.1367 2.02343 14.2734 2.07812 14.4266 2.18749ZM10.8281 2.48827C10.8281 2.50468 10.7352 2.70702 10.6148 2.94218C10.057 4.05234 9.51562 5.87343 9.20937 7.65077C9.13281 8.12109 9.05625 8.53671 9.04531 8.56952C9.0289 8.62421 8.40547 8.64062 6.14687 8.64062H3.27031L3.47265 8.26874C4.45703 6.47499 5.97187 4.88359 7.7164 3.80077C8.38359 3.38515 9.39531 2.9039 10.1172 2.65781C10.675 2.4664 10.8281 2.43359 10.8281 2.48827ZM17.8773 2.65781C18.9875 3.03515 20.2508 3.70781 21.2406 4.45156C21.8312 4.89452 22.8266 5.86249 23.3187 6.47499C23.7508 7.01093 24.1992 7.67812 24.5273 8.26874L24.7297 8.64062H21.8531C19.5945 8.64062 18.9711 8.62421 18.9547 8.56952C18.9437 8.53671 18.8672 8.12109 18.7906 7.65077C18.4844 5.87343 17.943 4.05234 17.3852 2.94218C17.2648 2.70702 17.1719 2.50468 17.1719 2.48827C17.1719 2.43359 17.3086 2.4664 17.8773 2.65781ZM8.77734 11.0851C8.6625 12.3211 8.6625 15.6789 8.77734 16.9148L8.81562 17.3359H5.64375H2.47187L2.3625 16.882C2.1164 15.8922 2.05078 15.2851 2.05078 14C2.05078 12.7148 2.1164 12.1078 2.3625 11.1125L2.47187 10.6641H5.64375H8.81562L8.77734 11.0851ZM17.1883 10.8664C17.2102 10.9812 17.2484 11.7305 17.2867 12.5398C17.3359 13.6555 17.3359 14.3445 17.2867 15.4656C17.2484 16.2695 17.2102 17.0187 17.1883 17.1281L17.1555 17.3359H14H10.8445L10.8117 17.1281C10.7898 17.0187 10.7516 16.2695 10.7133 15.4601C10.6641 14.3445 10.6641 13.6555 10.7133 12.5344C10.7516 11.7305 10.7898 10.9812 10.8117 10.8664L10.8445 10.6641H14H17.1555L17.1883 10.8664ZM25.6375 11.1125C25.8836 12.1078 25.9492 12.7148 25.9492 14C25.9492 15.2851 25.8836 15.8922 25.6375 16.882L25.5281 17.3359H22.3562H19.1844L19.2227 16.9148C19.2445 16.6851 19.2773 15.9305 19.2992 15.2469C19.3375 14 19.2937 11.8781 19.2227 11.0851L19.1844 10.6641H22.3562H25.5281L25.6375 11.1125ZM9.04531 19.425C9.05625 19.4633 9.13281 19.8789 9.20937 20.3492C9.51562 22.132 10.057 23.9476 10.6203 25.0687C10.7406 25.3039 10.8227 25.5117 10.8008 25.5281C10.7461 25.5828 9.55937 25.1562 8.88672 24.8336C7.63984 24.2375 6.69375 23.5758 5.69844 22.6187C4.76875 21.7164 4.05781 20.7976 3.47265 19.7258L3.27031 19.3594H6.14687C8.40547 19.3594 9.0289 19.3758 9.04531 19.425ZM16.8328 19.9445C16.2312 23.3133 14.9789 25.9766 14 25.9766C13.0211 25.9766 11.7687 23.3133 11.1672 19.9445L11.0633 19.3594H14H16.9367L16.8328 19.9445ZM24.5273 19.7258C23.9422 20.7976 23.2312 21.7164 22.3016 22.6187C21.3062 23.5758 20.3602 24.2375 19.1133 24.8336C18.4406 25.1562 17.2539 25.5828 17.1992 25.5281C17.1773 25.5117 17.2594 25.3039 17.3797 25.0687C17.943 23.9476 18.4844 22.132 18.7906 20.3492C18.8672 19.8789 18.9437 19.4633 18.9547 19.425C18.9711 19.3758 19.5945 19.3594 21.8531 19.3594H24.7297L24.5273 19.7258Z" fill="black"/>
</g>
<defs>
<clipPath id="clip0_81_237">
<rect width="28" height="28" fill="white"/>
</clipPath>
</defs>
</svg>
