<svg width="18" height="18" viewBox="0 0 18 18" fill="none" xmlns="http://www.w3.org/2000/svg">
<path d="M8.892 6.426C10.044 6.48 10.341 7.461 10.359 7.92H11.97C11.898 6.138 10.629 5.049 8.865 5.049C6.876 5.049 5.4 6.3 5.4 9.126C5.4 10.872 6.237 12.942 8.856 12.942C10.854 12.942 11.925 11.457 11.952 10.287H10.341C10.314 10.818 9.936 11.529 8.874 11.583C7.695 11.547 7.2 10.629 7.2 9.126C7.2 6.525 8.352 6.444 8.892 6.426ZM9 0C4.032 0 0 4.032 0 9C0 13.968 4.032 18 9 18C13.968 18 18 13.968 18 9C18 4.032 13.968 0 9 0ZM9 16.2C5.031 16.2 1.8 12.969 1.8 9C1.8 5.031 5.031 1.8 9 1.8C12.969 1.8 16.2 5.031 16.2 9C16.2 12.969 12.969 16.2 9 16.2Z" fill="white"/>
</svg>
