<svg width="16" height="20" viewBox="0 0 16 20" fill="none" xmlns="http://www.w3.org/2000/svg">
<path d="M7.11107 0.0425072C6.21252 0.132353 5.34955 0.355015 4.50883 0.718304C2.83628 1.44098 1.59077 2.53866 0.794526 3.99572C-0.65561 6.63641 -0.139611 9.47632 2.49821 13.3592C3.24997 14.4647 3.94835 15.3788 5.70986 17.5585C6.29703 18.289 6.95093 19.1054 7.16445 19.375C7.56479 19.8867 7.71603 20 8.00072 20C8.28541 20 8.43665 19.8867 8.837 19.375C9.05051 19.1054 9.70441 18.289 10.2916 17.5585C12.0175 15.4257 12.7782 14.4296 13.5121 13.3436C15.8831 9.83961 16.5103 7.28877 15.6028 4.82387C15.4338 4.36683 14.9756 3.5504 14.6331 3.10508C12.9961 0.956591 10.038 -0.246561 7.11107 0.0425072ZM9.31296 1.28863C12.3422 1.84724 14.5174 4.07776 14.6598 6.77704C14.731 8.07785 14.2861 9.51538 13.2497 11.3279C12.4356 12.7537 11.5371 13.992 9.15727 16.9452C8.53451 17.7226 8.01407 18.3554 8.00072 18.3554C7.98738 18.3554 7.86283 18.2109 7.72493 18.0351C7.58703 17.8593 7.0399 17.1796 6.51055 16.5234C5.46076 15.2265 4.41542 13.871 3.92166 13.1639C2.07563 10.5232 1.24825 8.4802 1.34166 6.77704C1.45732 4.64027 2.82738 2.78085 5.02038 1.80036C5.68762 1.49957 6.40379 1.30816 7.20003 1.2105C7.67155 1.15191 8.80586 1.19488 9.31296 1.28863Z" fill="#4D4D4D"/>
<path d="M7.20003 3.58939C5.69206 3.87846 4.52662 4.85114 4.12627 6.15195C4.0462 6.40586 4.02841 6.56993 4.02841 7.03087C4.02841 7.49182 4.0462 7.65589 4.12627 7.9098C4.51772 9.17546 5.63869 10.1364 7.09772 10.4567C7.55589 10.5583 8.53451 10.5466 9.00158 10.4333C10.4117 10.1013 11.4926 9.14811 11.8752 7.9098C11.9552 7.65589 11.973 7.49182 11.973 7.03087C11.973 6.56993 11.9552 6.40586 11.8752 6.15195C11.4926 4.90973 10.3983 3.94877 9.00158 3.62845C8.48558 3.51126 7.69379 3.49173 7.20003 3.58939ZM8.64127 4.7652C9.14392 4.87848 9.48644 5.05036 9.86899 5.39021C10.256 5.72616 10.4517 6.02695 10.5807 6.46836C10.7408 7.01916 10.6563 7.62073 10.3494 8.13637C10.1537 8.45669 9.61544 8.92936 9.25958 9.09342C8.66796 9.36687 7.98737 9.43718 7.36017 9.29655C6.86641 9.18717 6.51944 9.01139 6.13244 8.67154C5.74544 8.33559 5.54972 8.03871 5.42072 7.59339C5.26058 7.04259 5.34065 6.44492 5.65203 5.92538C5.83886 5.61287 6.3771 5.14021 6.74186 4.96833C7.32903 4.69488 8.01406 4.62457 8.64127 4.7652Z" fill="#4D4D4D"/>
</svg>
