<svg width="14" height="14" viewBox="0 0 14 14" fill="none" xmlns="http://www.w3.org/2000/svg">
<path d="M1.75 12.4H4.375V8.4C4.375 8.17333 4.459 7.98347 4.627 7.8304C4.795 7.67733 5.00267 7.60053 5.25 7.6H8.75C8.99792 7.6 9.20587 7.6768 9.37387 7.8304C9.54187 7.984 9.62558 8.17387 9.625 8.4V12.4H12.25V5.2L7 1.6L1.75 5.2V12.4ZM0 12.4V5.2C0 4.94667 0.0621248 4.70667 0.186375 4.48C0.310625 4.25333 0.481833 4.06667 0.7 3.92L5.95 0.32C6.25625 0.106667 6.60625 0 7 0C7.39375 0 7.74375 0.106667 8.05 0.32L13.3 3.92C13.5187 4.06667 13.6902 4.25333 13.8145 4.48C13.9387 4.70667 14.0006 4.94667 14 5.2V12.4C14 12.84 13.8285 13.2168 13.4855 13.5304C13.1425 13.844 12.7307 14.0005 12.25 14H8.75C8.50208 14 8.29442 13.9232 8.127 13.7696C7.95958 13.616 7.87558 13.4261 7.875 13.2V9.2H6.125V13.2C6.125 13.4267 6.041 13.6168 5.873 13.7704C5.705 13.924 5.49733 14.0005 5.25 14H1.75C1.26875 14 0.856916 13.8435 0.5145 13.5304C0.172083 13.2173 0.000583333 12.8405 0 12.4Z" fill="black"/>
</svg>
