<svg width="20" height="20" viewBox="0 0 20 20" fill="none" xmlns="http://www.w3.org/2000/svg">
<path d="M7.69531 16.4053C7.83136 16.4065 7.96142 16.4615 8.05762 16.5576C8.15383 16.6538 8.20876 16.7839 8.20996 16.9199C8.21114 17.0557 8.15864 17.1864 8.06445 17.2842L5.75684 19.5918C5.70898 19.6413 5.65117 19.6808 5.58789 19.708C5.52468 19.7351 5.45646 19.7494 5.3877 19.75C5.31886 19.7506 5.25023 19.737 5.18652 19.7109C5.12291 19.6848 5.06522 19.6463 5.0166 19.5977C4.96796 19.549 4.9294 19.4914 4.90332 19.4277C4.87723 19.364 4.86366 19.2954 4.86426 19.2266C4.86486 19.1577 4.87909 19.0896 4.90625 19.0264C4.93337 18.9633 4.97309 18.9062 5.02246 18.8584L5.02637 18.8545L7.3291 16.5508L7.33008 16.5518C7.42797 16.4572 7.5592 16.4041 7.69531 16.4053ZM17.5986 0.25C17.8811 0.249979 18.1609 0.30602 18.4219 0.414062C18.6828 0.522114 18.9204 0.680253 19.1201 0.879883C19.3197 1.07944 19.4778 1.31646 19.5859 1.57715C19.6941 1.83806 19.75 2.11798 19.75 2.40039C19.75 2.68279 19.694 2.96271 19.5859 3.22363C19.5049 3.41928 19.3956 3.60152 19.2617 3.76465L19.1201 3.9209L16.6953 6.34668L16.5674 6.47461L16.6494 6.63672C17.9708 9.24782 17.6526 12.4748 15.6963 14.7891L15.5898 14.916L15.665 15.0645C15.8974 15.5207 15.9593 16.0451 15.8398 16.543C15.7203 17.0407 15.4269 17.4792 15.0127 17.7803C14.5983 18.0814 14.0898 18.2256 13.5791 18.1855C13.0685 18.1455 12.5889 17.9244 12.2266 17.5625L2.45703 7.79492C2.09692 7.43412 1.87626 6.95721 1.83496 6.44922C1.79375 5.94119 1.93425 5.43466 2.23145 5.02051C2.52867 4.60645 2.96346 4.31121 3.45801 4.1875C3.95277 4.06387 4.47628 4.11908 4.93359 4.34473L5.08008 4.41797L5.20508 4.31152C7.51853 2.3534 10.748 2.03362 13.3613 3.35254L13.5234 3.43359L16.0771 0.879883C16.2769 0.680162 16.5144 0.522175 16.7754 0.414062C17.0364 0.30595 17.3161 0.250032 17.5986 0.25ZM5.39258 14.0898C5.5301 14.0898 5.66246 14.1441 5.75977 14.2412C5.85706 14.3385 5.9121 14.4708 5.91211 14.6084C5.91211 14.746 5.85707 14.8783 5.75977 14.9756L3.45605 17.2783C3.3582 17.3728 3.22688 17.4259 3.09082 17.4248C2.9548 17.4236 2.82473 17.3686 2.72852 17.2725C2.63229 17.1763 2.57737 17.0462 2.57617 16.9102C2.57499 16.7741 2.62713 16.6428 2.72168 16.5449L5.02637 14.2412C5.12358 14.1443 5.25525 14.0899 5.39258 14.0898ZM3.95117 5.16211C3.70123 5.16808 3.46102 5.25749 3.26953 5.41504L3.19043 5.4873C2.98188 5.69585 2.86436 5.97805 2.86426 6.27344C2.86426 6.53178 2.95391 6.78138 3.11621 6.97949L3.19043 7.06152L12.9609 16.8291C13.1642 17.04 13.4424 17.1628 13.7354 17.1699C13.8814 17.1735 14.0268 17.1473 14.1631 17.0947C14.2994 17.0421 14.4245 16.9631 14.5303 16.8623C14.7438 16.6588 14.8678 16.3789 14.875 16.084C14.8822 15.7889 14.772 15.5027 14.5684 15.2891L14.5635 15.2852L4.73438 5.45898L4.72559 5.4502C4.514 5.25837 4.2367 5.15538 3.95117 5.16211ZM3.09082 11.7734C3.1597 11.7729 3.22824 11.7864 3.29199 11.8125C3.35565 11.8386 3.41327 11.8771 3.46191 11.9258C3.51057 11.9744 3.5491 12.0321 3.5752 12.0957C3.60129 12.1595 3.61486 12.228 3.61426 12.2969C3.61366 12.3657 3.59943 12.4338 3.57227 12.4971C3.54514 12.5602 3.50544 12.6172 3.45605 12.665L3.45312 12.6689L1.14551 14.9756L1.14258 14.9785C1.09471 15.0281 1.03695 15.0675 0.973633 15.0947C0.910388 15.1218 0.84225 15.1361 0.773438 15.1367C0.704554 15.1373 0.636017 15.1237 0.572266 15.0977C0.508609 15.0716 0.450988 15.033 0.402344 14.9844C0.353684 14.9357 0.315152 14.8781 0.289062 14.8145C0.262968 14.7507 0.249401 14.6822 0.25 14.6133C0.25061 14.5444 0.264816 14.4763 0.291992 14.4131C0.319128 14.3499 0.358793 14.2929 0.408203 14.2451L0.411133 14.2412L2.71875 11.9346L2.72168 11.9316C2.76954 11.8821 2.82732 11.8426 2.89062 11.8154C2.95386 11.7883 3.02202 11.774 3.09082 11.7734ZM10.4082 3.60742C8.85212 3.50971 7.31397 3.98301 6.08203 4.93848L5.85742 5.1123L6.05859 5.3125L14.6914 13.9443L14.8926 14.1445L15.0664 13.9209C16.0222 12.6891 16.4953 11.1506 16.3975 9.59473C16.2996 8.03881 15.6368 6.57208 14.5342 5.46973C13.4316 4.36749 11.9644 3.70525 10.4082 3.60742ZM17.5996 1.28809C17.4535 1.28809 17.3079 1.31615 17.1729 1.37207C17.0381 1.42792 16.9157 1.51018 16.8125 1.61328L14.6221 3.80273L14.4238 4.00098L14.6426 4.1748C15.0794 4.52268 15.476 4.91894 15.8242 5.35547L15.999 5.57422L18.3857 3.1875C18.4891 3.08417 18.572 2.96119 18.6279 2.82617C18.6838 2.69128 18.7119 2.54638 18.7119 2.40039C18.7119 2.25434 18.6838 2.10954 18.6279 1.97461C18.572 1.83959 18.4891 1.71661 18.3857 1.61328C18.2825 1.51018 18.1602 1.42791 18.0254 1.37207C17.8905 1.31621 17.7456 1.28814 17.5996 1.28809Z" fill="#878787" stroke="#878787" stroke-width="0.5"/>
</svg>
